<svg width="13" height="12" viewBox="0 0 13 12" fill="none" xmlns="http://www.w3.org/2000/svg">
<circle cx="6.65119" cy="5.95002" r="5.95002" fill="#89AD37"/>
<path d="M4.8241 3.77253C4.82401 3.93754 4.75428 4.09576 4.63024 4.21239C4.5062 4.32901 4.33802 4.39449 4.16269 4.3944C3.98737 4.39432 3.81926 4.32869 3.69534 4.21195C3.57143 4.09521 3.50187 3.93692 3.50195 3.7719C3.50204 3.60689 3.57177 3.44866 3.69581 3.33204C3.81985 3.21541 3.98803 3.14994 4.16336 3.15002C4.33868 3.15011 4.50679 3.21574 4.63071 3.33248C4.75462 3.44922 4.82419 3.60751 4.8241 3.77253ZM4.84393 4.85513H3.52179V8.75004H4.84393V4.85513ZM6.93292 4.85513H5.61738V8.75004H6.9197V6.70615C6.9197 5.56754 8.49635 5.46177 8.49635 6.70615V8.75004H9.80197V6.28306C9.80197 4.36361 7.46839 4.43516 6.9197 5.37777L6.93292 4.85513Z" fill="white"/>
</svg>
