<svg width="8" height="6" viewBox="0 0 8 6" fill="none" xmlns="http://www.w3.org/2000/svg">
<path d="M7.60023 0.0026335C7.56616 -0.000877832 7.53181 -0.000877832 7.49773 0.0026335H0.497734C0.45287 0.00332478 0.408304 0.0100518 0.365234 0.0226335L3.97773 3.62013L7.60023 0.0026335Z" fill="#155820"/>
<path d="M7.97 0.35022L4.33 3.97522C4.23632 4.06835 4.10959 4.12062 3.9775 4.12062C3.84541 4.12062 3.71868 4.06835 3.625 3.97522L0.0175 0.37772C0.00640986 0.41848 0.000529671 0.460481 0 0.50272V5.50272C0 5.63533 0.0526784 5.7625 0.146447 5.85627C0.240215 5.95004 0.367392 6.00272 0.5 6.00272H7.5C7.63261 6.00272 7.75979 5.95004 7.85355 5.85627C7.94732 5.7625 8 5.63533 8 5.50272V0.50272C7.99801 0.450633 7.98789 0.399179 7.97 0.35022ZM0.8425 5.50272H0.495V5.14522L2.3125 3.34272L2.665 3.69522L0.8425 5.50272ZM7.495 5.50272H7.145L5.3225 3.69522L5.675 3.34272L7.4925 5.14522L7.495 5.50272Z" fill="#155820"/>
</svg>
