<svg width="8" height="8" viewBox="0 0 8 8" fill="none" xmlns="http://www.w3.org/2000/svg">
<path d="M7.53333 8C6.60741 8 5.69259 7.79822 4.78889 7.39467C3.88519 6.99111 3.06296 6.41881 2.32222 5.67778C1.58148 4.93674 1.00933 4.11452 0.605778 3.21111C0.202222 2.3077 0.000296296 1.39289 0 0.466667C0 0.333333 0.0444444 0.222222 0.133333 0.133333C0.222222 0.0444444 0.333333 0 0.466667 0H2.26667C2.37037 0 2.46296 0.0352592 2.54444 0.105778C2.62593 0.176296 2.67407 0.259556 2.68889 0.355556L2.97778 1.91111C2.99259 2.02963 2.98889 2.12963 2.96667 2.21111C2.94444 2.29259 2.9037 2.36296 2.84444 2.42222L1.76667 3.51111C1.91481 3.78519 2.09067 4.04993 2.29422 4.30533C2.49778 4.56074 2.72193 4.80711 2.96667 5.04444C3.1963 5.27407 3.43704 5.48711 3.68889 5.68356C3.94074 5.88 4.20741 6.05956 4.48889 6.22222L5.53333 5.17778C5.6 5.11111 5.68711 5.06118 5.79467 5.028C5.90222 4.99481 6.0077 4.98548 6.11111 5L7.64444 5.31111C7.74815 5.34074 7.83333 5.39452 7.9 5.47244C7.96667 5.55037 8 5.63733 8 5.73333V7.53333C8 7.66667 7.95556 7.77778 7.86667 7.86667C7.77778 7.95556 7.66667 8 7.53333 8Z" fill="#155820"/>
</svg>
