<svg width="13" height="12" viewBox="0 0 13 12" fill="none" xmlns="http://www.w3.org/2000/svg">
<circle cx="6.35041" cy="5.95014" r="5.95002" fill="#89AD37"/>
<path d="M4.87962 2.45007H7.81962C8.93963 2.45007 9.84963 3.36008 9.84963 4.48008V7.42009C9.84963 7.95848 9.63575 8.47482 9.25505 8.85552C8.87435 9.23622 8.35802 9.45009 7.81962 9.45009H4.87962C3.75961 9.45009 2.84961 8.54009 2.84961 7.42009V4.48008C2.84961 3.94169 3.06348 3.42535 3.44418 3.04465C3.82488 2.66395 4.34122 2.45007 4.87962 2.45007ZM4.80962 3.15008C4.47544 3.15008 4.15495 3.28283 3.91866 3.51912C3.68236 3.75542 3.54961 4.07591 3.54961 4.41008V7.49009C3.54961 8.18659 4.11311 8.75009 4.80962 8.75009H7.88962C8.2238 8.75009 8.54428 8.61734 8.78058 8.38105C9.01688 8.14475 9.14963 7.82426 9.14963 7.49009V4.41008C9.14963 3.71358 8.58613 3.15008 7.88962 3.15008H4.80962ZM8.18712 3.67508C8.30316 3.67508 8.41444 3.72117 8.49649 3.80322C8.57853 3.88527 8.62463 3.99655 8.62463 4.11258C8.62463 4.22861 8.57853 4.33989 8.49649 4.42194C8.41444 4.50399 8.30316 4.55008 8.18712 4.55008C8.07109 4.55008 7.95981 4.50399 7.87776 4.42194C7.79572 4.33989 7.74962 4.22861 7.74962 4.11258C7.74962 3.99655 7.79572 3.88527 7.87776 3.80322C7.95981 3.72117 8.07109 3.67508 8.18712 3.67508ZM6.34962 4.20008C6.81375 4.20008 7.25887 4.38445 7.58706 4.71264C7.91525 5.04083 8.09962 5.48595 8.09962 5.95008C8.09962 6.41421 7.91525 6.85933 7.58706 7.18752C7.25887 7.51571 6.81375 7.70009 6.34962 7.70009C5.88549 7.70009 5.44037 7.51571 5.11218 7.18752C4.78399 6.85933 4.59961 6.41421 4.59961 5.95008C4.59961 5.48595 4.78399 5.04083 5.11218 4.71264C5.44037 4.38445 5.88549 4.20008 6.34962 4.20008ZM6.34962 4.90008C6.07114 4.90008 5.80407 5.01071 5.60716 5.20762C5.41024 5.40453 5.29962 5.67161 5.29962 5.95008C5.29962 6.22856 5.41024 6.49563 5.60716 6.69255C5.80407 6.88946 6.07114 7.00009 6.34962 7.00009C6.6281 7.00009 6.89517 6.88946 7.09208 6.69255C7.289 6.49563 7.39962 6.22856 7.39962 5.95008C7.39962 5.67161 7.289 5.40453 7.09208 5.20762C6.89517 5.01071 6.6281 4.90008 6.34962 4.90008Z" fill="white"/>
</svg>
